<svg id="Layer_4" data-name="Layer 4" xmlns="http://www.w3.org/2000/svg" viewBox="0 0 136 100"><defs><style>.cls-1{fill:#fdb71a;}.cls-2{fill:#fff;}</style></defs><title>Artboard 2 copy 3</title><path class="cls-1" d="M83.3,41.76q.56-1.78,2.8-9.58.56-2,2.8-8.1c1.51-4.16,2.7-7.5,3.6-10a46.94,46.94,0,0,0-8,7c-9.72,10.47-21,23.13-25,29.77C61,50.5,64,47.31,73.72,44a36.86,36.86,0,0,1,9.58-2.23Zm-1.72,6.69c-30.63,0-44,48.82-65.22,48.82q-7.23,0-11.18-6.49a17.8,17.8,0,0,1-2.54-9.47Q2.64,68,15.26,47.62,26,30.31,38,19.74q10.32-9.09,17.69-9.09a7.49,7.49,0,0,1,6.37,3,9.14,9.14,0,0,1,1.79,5.69q0,6-4,13.67A49.75,49.75,0,0,1,51,44.86q-3.45,3.41-5.42,3.4a3.58,3.58,0,0,1-3.21-3.4q0-2.18,3.76-5a35.8,35.8,0,0,0,8.46-8.66q4.62-6.81,4.62-11.51a4.2,4.2,0,0,0-.83-2.85,3.22,3.22,0,0,0-2.5-.92q-3.41,0-9.64,5a100.08,100.08,0,0,0-15,15.15,105.59,105.59,0,0,0-15.33,24Q10.5,72.32,10.5,81A10.73,10.73,0,0,0,12.9,88a7.83,7.83,0,0,0,6.48,3.28c9.7-.36,21.79-22.51,25.53-27.66,37-51.1,39.84-51.24,45.45-56.56q4.89-4.69,7.48-4.7a3.68,3.68,0,0,1,2.79,1.3,3.94,3.94,0,0,1,1,2.6,19.77,19.77,0,0,1-1.72,6.06q-3,7.61-5.68,16.26-2.35,7.66-3.15,11.76a10.9,10.9,0,0,0,1.48-.07c1.19,0,2.18-.06,3-.06q3.59,0,3.58,2.72a4,4,0,0,1-.77,2.32,3.09,3.09,0,0,1-1.75,1.4,9.6,9.6,0,0,1-2,.12,23.21,23.21,0,0,0-5.24.43c-.43,1.3-1.56,12.31-3.23,12.68-5.15,4.5-4.76-10-4.48-11.47Z"/><path class="cls-2" d="M51.21,81.84a4.87,4.87,0,1,1-3.46,1.42,4.71,4.71,0,0,1,3.46-1.42Z"/><path class="cls-2" d="M81.08,68.9l-3.42,3.38a10.12,10.12,0,0,0-7.56-3.43,8.64,8.64,0,0,0-6.3,2.5,8.15,8.15,0,0,0-2.55,6.06,8.4,8.4,0,0,0,2.64,6.26,9,9,0,0,0,6.51,2.56,7.94,7.94,0,0,0,4.24-1.06,7.45,7.45,0,0,0,2.78-3.31H70V77.31H82.87l0,1.08a12.44,12.44,0,0,1-1.74,6.34,12.05,12.05,0,0,1-4.49,4.58,12.85,12.85,0,0,1-6.48,1.58,14.37,14.37,0,0,1-7.09-1.73,12.67,12.67,0,0,1-4.94-4.91,13.72,13.72,0,0,1-1.81-6.89,12.8,12.8,0,0,1,3.35-8.81,13.22,13.22,0,0,1,10.35-4.46,15.83,15.83,0,0,1,6.24,1.23,14.37,14.37,0,0,1,4.79,3.58Z"/><path class="cls-2" d="M97.78,64.09A12.68,12.68,0,0,1,107.09,68a13.62,13.62,0,0,1,0,19,13.31,13.31,0,0,1-18.87-.1,13.65,13.65,0,0,1-2-16.17,13.39,13.39,0,0,1,11.54-6.66Zm-.07,4.76a7.93,7.93,0,0,0-5.93,2.47,8.6,8.6,0,0,0-2.4,6.26,8.15,8.15,0,0,0,3,6.69,8.26,8.26,0,0,0,5.4,1.93,7.88,7.88,0,0,0,5.86-2.5,9,9,0,0,0,0-12.32,7.9,7.9,0,0,0-5.93-2.53Z"/><polygon class="cls-2" points="110.08 64.73 115.07 64.73 121.48 82.86 128.03 64.73 133 64.73 123.79 90.25 119.11 90.25 110.08 64.73 110.08 64.73"/></svg>